<?xml version="1.0" encoding="UTF-8"?>
<svg xmlns="http://www.w3.org/2000/svg" viewBox="0 0 1024 1024" width="1024" height="1024">
  <defs>
    <radialGradient id="bg" cx="30%" cy="20%" r="80%">
      <stop offset="0%" stop-color="#102031"/>
      <stop offset="60%" stop-color="#05070c"/>
      <stop offset="100%" stop-color="#02030a"/>
    </radialGradient>
    <clipPath id="squircle">
      <rect x="0" y="0" width="1024" height="1024" rx="229" ry="229"/>
    </clipPath>
  </defs>
  <rect x="0" y="0" width="1024" height="1024" rx="229" ry="229" fill="url(#bg)"/>
  <g clip-path="url(#squircle)">
    <circle cx="512" cy="512" r="400" fill="none" stroke="#5eead4" stroke-width="3.2" opacity="0.04"/>
    <circle cx="512" cy="512" r="320" fill="none" stroke="#5eead4" stroke-width="3.2" opacity="0.06"/>
    <circle cx="512" cy="512" r="240" fill="none" stroke="#5eead4" stroke-width="3.2" opacity="0.08"/>
    <circle cx="512" cy="512" r="160" fill="none" stroke="#5eead4" stroke-width="3.2" opacity="0.10"/>
  </g>
  <g clip-path="url(#squircle)">
    <svg x="184.32" y="184.32" width="655.36" height="655.36" viewBox="0 0 64 64">
      <path d="M 32 8 A 24 24 0 1 0 32 56" fill="none" stroke="#5eead4" stroke-width="2.5" stroke-linecap="round" opacity="1"/>
      <path d="M 32 16 A 16 16 0 1 0 32 48" fill="none" stroke="#5eead4" stroke-width="2.5" stroke-linecap="round" opacity="0.78"/>
      <path d="M 32 24 A 8 8 0 1 0 32 40" fill="none" stroke="#5eead4" stroke-width="2.5" stroke-linecap="round" opacity="0.55"/>
      <line x1="32" y1="32" x2="56" y2="32" stroke="#ff3d7f" stroke-width="2.5" stroke-linecap="round"/>
      <circle cx="56" cy="32" r="3.5" fill="#ff3d7f"/>
      <circle cx="56" cy="32" r="6.5" fill="#ff3d7f" opacity="0.18"/>
    </svg>
  </g>
</svg>
